<mxfile host="Electron" agent="Mozilla/5.0 (Macintosh; Intel Mac OS X 10_15_7) AppleWebKit/537.36 (KHTML, like Gecko) draw.io/26.0.9 Chrome/128.0.6613.186 Electron/32.2.5 Safari/537.36" version="26.0.9">
  <diagram name="Page-1" id="WPdJK6UoSyrPu70Qkxo5">
    <mxGraphModel dx="3480" dy="718" grid="0" gridSize="10" guides="1" tooltips="1" connect="1" arrows="1" fold="1" page="0" pageScale="1" pageWidth="827" pageHeight="1169" math="0" shadow="0">
      <root>
        <mxCell id="0" />
        <mxCell id="1" parent="0" />
        <mxCell id="c1Hqn0Iyyu-yD7bxTVWq-1" value="&lt;b&gt;SAP BW NetWeaver&lt;/b&gt;&lt;div&gt;&lt;b&gt;SAP BW/4HANA&lt;/b&gt;&lt;/div&gt;&lt;div&gt;&lt;br&gt;&lt;/div&gt;&lt;div&gt;&lt;br&gt;&lt;/div&gt;&lt;div&gt;&lt;br&gt;&lt;/div&gt;&lt;div&gt;&lt;br&gt;&lt;/div&gt;&lt;div&gt;&lt;br&gt;&lt;/div&gt;&lt;div&gt;&lt;br&gt;&lt;/div&gt;&lt;div&gt;&lt;br&gt;&lt;/div&gt;&lt;div&gt;&lt;br&gt;&lt;/div&gt;&lt;div&gt;&lt;br&gt;&lt;/div&gt;&lt;div&gt;&lt;br&gt;&lt;/div&gt;&lt;div&gt;&lt;br&gt;&lt;/div&gt;" style="rounded=1;whiteSpace=wrap;html=1;" parent="1" vertex="1">
          <mxGeometry x="-878" y="1093.5" width="200" height="227" as="geometry" />
        </mxCell>
        <mxCell id="h9L52XwyiUI2S6i_91ug-1" value="" style="rounded=1;whiteSpace=wrap;html=1;arcSize=24;absoluteArcSize=1;imageWidth=64;imageHeight=64;strokeWidth=1.5;fontFamily=Arial;" parent="1" vertex="1">
          <mxGeometry x="-469.66" y="929" width="1392.66" height="452" as="geometry" />
        </mxCell>
        <mxCell id="h9L52XwyiUI2S6i_91ug-2" value="&lt;font face=&quot;arial&quot; style=&quot;font-size: 21px;&quot;&gt;&lt;b style=&quot;&quot;&gt;SAP Business Data Cloud&amp;nbsp;&lt;/b&gt;&lt;/font&gt;" style="text;html=1;align=center;verticalAlign=middle;resizable=0;points=[[0,0.5,0,0,0],[0.5,0,0,0,0],[0.5,1,0,0,0],[1,0.5,0,0,0]];autosize=1;strokeColor=none;fillColor=none;fontSize=12;fontColor=#1D2D3E;fontFamily=Helvetica;" parent="1" vertex="1">
          <mxGeometry x="-462.99999999999994" y="936" width="290" height="40" as="geometry" />
        </mxCell>
        <mxCell id="h9L52XwyiUI2S6i_91ug-3" value="" style="rounded=1;whiteSpace=wrap;html=1;strokeColor=#0070F2;fillColor=#ffffff;arcSize=24;absoluteArcSize=1;imageWidth=64;imageHeight=64;strokeWidth=1.5;" parent="1" vertex="1">
          <mxGeometry x="-446.16" y="1110" width="186.5" height="209" as="geometry" />
        </mxCell>
        <mxCell id="h9L52XwyiUI2S6i_91ug-4" value="&lt;font face=&quot;arial&quot; style=&quot;font-size: 16px;&quot;&gt;&lt;b style=&quot;font-size: 16px;&quot;&gt;SAP BW Cloud, PCE&lt;/b&gt;&lt;/font&gt;" style="text;html=1;align=center;verticalAlign=middle;resizable=0;points=[[0,0.5,0,0,0],[0.5,0,0,0,0],[0.5,1,0,0,0],[1,0.5,0,0,0]];autosize=1;strokeColor=none;fillColor=none;fontSize=12;fontColor=#1D2D3E;fontFamily=Helvetica;" parent="1" vertex="1">
          <mxGeometry x="-439.65999999999997" y="1130" width="180" height="30" as="geometry" />
        </mxCell>
        <mxCell id="h9L52XwyiUI2S6i_91ug-5" value="InfoProviders" style="rounded=1;whiteSpace=wrap;html=1;strokeColor=#0070F2;fillColor=#EBF8FF;arcSize=24;absoluteArcSize=1;imageWidth=64;imageHeight=64;strokeWidth=1.5;dashed=1;dashPattern=1 2;" parent="1" vertex="1">
          <mxGeometry x="-432.91" y="1283.5" width="160" height="25.5" as="geometry" />
        </mxCell>
        <mxCell id="h9L52XwyiUI2S6i_91ug-6" value="" style="rounded=1;whiteSpace=wrap;html=1;strokeColor=#0070F2;fillColor=#ffffff;arcSize=24;absoluteArcSize=1;imageWidth=64;imageHeight=64;strokeWidth=1.5;" parent="1" vertex="1">
          <mxGeometry x="16.840000000000003" y="1099" width="513.5" height="220" as="geometry" />
        </mxCell>
        <mxCell id="h9L52XwyiUI2S6i_91ug-7" value="&lt;font face=&quot;arial&quot; style=&quot;font-size: 16px;&quot;&gt;&lt;b style=&quot;font-size: 16px;&quot;&gt;SAP Datasphere&lt;/b&gt;&lt;/font&gt;" style="text;html=1;align=center;verticalAlign=middle;resizable=0;points=[[0,0.5,0,0,0],[0.5,0,0,0,0],[0.5,1,0,0,0],[1,0.5,0,0,0]];autosize=1;strokeColor=none;fillColor=none;fontSize=12;fontColor=#1D2D3E;fontFamily=Helvetica;" parent="1" vertex="1">
          <mxGeometry x="16.090000000000003" y="1099" width="150" height="30" as="geometry" />
        </mxCell>
        <mxCell id="h9L52XwyiUI2S6i_91ug-8" value="" style="rounded=1;whiteSpace=wrap;html=1;strokeColor=#0070F2;fillColor=#ffffff;arcSize=24;absoluteArcSize=1;imageWidth=64;imageHeight=64;strokeWidth=1.5;" parent="1" vertex="1">
          <mxGeometry x="16.090000000000003" y="979" width="514.25" height="100" as="geometry" />
        </mxCell>
        <mxCell id="h9L52XwyiUI2S6i_91ug-9" value="&lt;font face=&quot;arial&quot; style=&quot;font-size: 16px;&quot;&gt;&lt;b style=&quot;font-size: 16px;&quot;&gt;SAP Analytics Cloud&amp;nbsp;&lt;/b&gt;&lt;/font&gt;" style="text;html=1;align=center;verticalAlign=middle;resizable=0;points=[[0,0.5,0,0,0],[0.5,0,0,0,0],[0.5,1,0,0,0],[1,0.5,0,0,0]];autosize=1;strokeColor=none;fillColor=none;fontSize=12;fontColor=#1D2D3E;fontFamily=Helvetica;" parent="1" vertex="1">
          <mxGeometry x="16.090000000000003" y="979" width="190" height="30" as="geometry" />
        </mxCell>
        <mxCell id="h9L52XwyiUI2S6i_91ug-10" value="&lt;font style=&quot;color: light-dark(rgb(250, 250, 250), rgb(237, 237, 237)); font-size: 17px;&quot;&gt;Partner Connect -&amp;nbsp;&lt;/font&gt;&lt;div&gt;&lt;font style=&quot;color: light-dark(rgb(250, 250, 250), rgb(237, 237, 237)); font-size: 17px;&quot;&gt;SAP Databricks (Green Field)&lt;/font&gt;&lt;/div&gt;&lt;div&gt;&lt;div&gt;&lt;font style=&quot;color: light-dark(rgb(250, 250, 250), rgb(237, 237, 237)); font-size: 17px;&quot;&gt;&lt;br&gt;&lt;/font&gt;&lt;/div&gt;&lt;div&gt;&lt;font style=&quot;color: light-dark(rgb(250, 250, 250), rgb(237, 237, 237)); font-size: 17px;&quot;&gt;&lt;br&gt;&lt;/font&gt;&lt;/div&gt;&lt;div&gt;&lt;font style=&quot;color: light-dark(rgb(250, 250, 250), rgb(237, 237, 237)); font-size: 17px;&quot;&gt;&lt;br&gt;&lt;/font&gt;&lt;/div&gt;&lt;div&gt;&lt;font style=&quot;color: light-dark(rgb(250, 250, 250), rgb(237, 237, 237)); font-size: 17px;&quot;&gt;&lt;br&gt;&lt;/font&gt;&lt;/div&gt;&lt;div&gt;&lt;font style=&quot;color: light-dark(rgb(250, 250, 250), rgb(237, 237, 237)); font-size: 17px;&quot;&gt;&lt;br&gt;&lt;/font&gt;&lt;/div&gt;&lt;div&gt;&lt;font style=&quot;color: light-dark(rgb(250, 250, 250), rgb(237, 237, 237)); font-size: 17px;&quot;&gt;&lt;br&gt;&lt;/font&gt;&lt;/div&gt;&lt;div&gt;&lt;font style=&quot;color: light-dark(rgb(250, 250, 250), rgb(237, 237, 237)); font-size: 17px;&quot;&gt;&lt;br&gt;&lt;/font&gt;&lt;/div&gt;&lt;div&gt;&lt;font style=&quot;color: light-dark(rgb(250, 250, 250), rgb(237, 237, 237)); font-size: 17px;&quot;&gt;&lt;br&gt;&lt;/font&gt;&lt;/div&gt;&lt;/div&gt;" style="rounded=1;whiteSpace=wrap;html=1;strokeColor=#0070F2;fillColor=#3399FF;arcSize=24;absoluteArcSize=1;imageWidth=64;imageHeight=64;strokeWidth=1.5;" parent="1" vertex="1">
          <mxGeometry x="632" y="1097.5" width="261" height="223" as="geometry" />
        </mxCell>
        <mxCell id="h9L52XwyiUI2S6i_91ug-11" value="&lt;font style=&quot;font-size: 18px;&quot;&gt;Insight App&lt;/font&gt;" style="rounded=1;whiteSpace=wrap;html=1;strokeColor=#0070F2;fillColor=#EBF8FF;arcSize=24;absoluteArcSize=1;imageWidth=64;imageHeight=64;strokeWidth=1.5;dashed=1;dashPattern=1 2;" parent="1" vertex="1">
          <mxGeometry x="47.84" y="1019" width="462.5" height="40" as="geometry" />
        </mxCell>
        <mxCell id="h9L52XwyiUI2S6i_91ug-12" value="&lt;font style=&quot;font-size: 18px;&quot;&gt;SAP Datasphere&lt;/font&gt;&lt;span style=&quot;color: rgba(0, 0, 0, 0); font-family: monospace; font-size: 0px; text-align: start; text-wrap: nowrap;&quot;&gt;%3CmxGraphModel%3E%3Croot%3E%3CmxCell%20id%3D%220%22%2F%3E%3CmxCell%20id%3D%221%22%20parent%3D%220%22%2F%3E%3CmxCell%20id%3D%222%22%20value%3D%22%26lt%3Bfont%20style%3D%26quot%3Bfont-size%3A%2018px%3B%26quot%3B%26gt%3BInsight%20App%26lt%3B%2Ffont%26gt%3B%22%20style%3D%22rounded%3D1%3BwhiteSpace%3Dwrap%3Bhtml%3D1%3BstrokeColor%3D%230070F2%3BfillColor%3D%23EBF8FF%3BarcSize%3D24%3BabsoluteArcSize%3D1%3BimageWidth%3D64%3BimageHeight%3D64%3BstrokeWidth%3D1.5%3Bdashed%3D1%3BdashPattern%3D1%202%3B%22%20vertex%3D%221%22%20parent%3D%221%22%3E%3CmxGeometry%20x%3D%22-62.5%22%20y%3D%22-340%22%20width%3D%22462.5%22%20height%3D%2240%22%20as%3D%22geometry%22%2F%3E%3C%2FmxCell%3E%3C%2Froot%3E%3C%2FmxGraphModel%3E&lt;/span&gt;" style="rounded=1;whiteSpace=wrap;html=1;strokeColor=#0070F2;fillColor=#EBF8FF;arcSize=24;absoluteArcSize=1;imageWidth=64;imageHeight=64;strokeWidth=1.5;dashed=1;dashPattern=1 2;" parent="1" vertex="1">
          <mxGeometry x="39.220000000000006" y="1129" width="468.75" height="40" as="geometry" />
        </mxCell>
        <mxCell id="h9L52XwyiUI2S6i_91ug-13" value="&lt;span style=&quot;font-size: 18px;&quot;&gt;SAP HANA Cloud&amp;nbsp;&lt;/span&gt;" style="rounded=1;whiteSpace=wrap;html=1;strokeColor=#0070F2;fillColor=#EBF8FF;arcSize=24;absoluteArcSize=1;imageWidth=64;imageHeight=64;strokeWidth=1.5;dashed=1;dashPattern=1 2;" parent="1" vertex="1">
          <mxGeometry x="39.220000000000006" y="1180" width="470" height="40" as="geometry" />
        </mxCell>
        <mxCell id="h9L52XwyiUI2S6i_91ug-14" value="&lt;span style=&quot;font-size: 18px;&quot;&gt;&amp;nbsp;Object Store&lt;/span&gt;&lt;div&gt;&lt;span style=&quot;font-size: 18px;&quot;&gt;&amp;nbsp; &amp;nbsp; &amp;nbsp;(HDLF)&lt;/span&gt;&lt;/div&gt;" style="rounded=1;whiteSpace=wrap;html=1;strokeColor=#0070F2;fillColor=#EBF8FF;arcSize=24;absoluteArcSize=1;imageWidth=64;imageHeight=64;strokeWidth=1.5;dashed=1;dashPattern=1 2;align=left;" parent="1" vertex="1">
          <mxGeometry x="40.34" y="1230" width="473.25" height="79" as="geometry" />
        </mxCell>
        <mxCell id="h9L52XwyiUI2S6i_91ug-15" value="&lt;font style=&quot;color: light-dark(rgb(250, 250, 250), rgb(237, 237, 237)); font-size: 17px;&quot;&gt;Custom BW Data Products&lt;/font&gt;" style="rounded=1;whiteSpace=wrap;html=1;strokeColor=#006EAF;fillColor=#66B2FF;arcSize=24;absoluteArcSize=1;imageWidth=64;imageHeight=64;strokeWidth=1.5;fontColor=#ffffff;" parent="1" vertex="1">
          <mxGeometry x="166.09" y="1250" width="316.25" height="40" as="geometry" />
        </mxCell>
        <mxCell id="h9L52XwyiUI2S6i_91ug-16" value="&lt;font face=&quot;arial&quot; style=&quot;font-size: 16px;&quot;&gt;&lt;span style=&quot;font-size: 16px;&quot;&gt;Data Product Generator for SAP BW&lt;/span&gt;&lt;/font&gt;" style="text;html=1;align=center;verticalAlign=middle;resizable=0;points=[[0,0.5,0,0,0],[0.5,0,0,0,0],[0.5,1,0,0,0],[1,0.5,0,0,0]];autosize=1;strokeColor=none;fillColor=none;fontSize=12;fontColor=#1D2D3E;fontFamily=Helvetica;" parent="1" vertex="1">
          <mxGeometry x="-259.65999999999997" y="1220" width="280" height="30" as="geometry" />
        </mxCell>
        <mxCell id="h9L52XwyiUI2S6i_91ug-17" value="Provisioning Layer" style="rounded=1;whiteSpace=wrap;html=1;strokeColor=#0070F2;fillColor=#EBF8FF;arcSize=24;absoluteArcSize=1;imageWidth=64;imageHeight=64;strokeWidth=1.5;dashed=1;dashPattern=1 2;" parent="1" vertex="1">
          <mxGeometry x="-432.91" y="1229" width="160" height="44" as="geometry" />
        </mxCell>
        <mxCell id="h9L52XwyiUI2S6i_91ug-18" style="edgeStyle=orthogonalEdgeStyle;rounded=0;orthogonalLoop=1;jettySize=auto;html=1;entryX=0.026;entryY=0.691;entryDx=0;entryDy=0;entryPerimeter=0;" parent="1" source="h9L52XwyiUI2S6i_91ug-17" target="h9L52XwyiUI2S6i_91ug-6" edge="1">
          <mxGeometry relative="1" as="geometry" />
        </mxCell>
        <mxCell id="h9L52XwyiUI2S6i_91ug-19" value="&lt;font face=&quot;arial&quot; style=&quot;font-size: 16px;&quot;&gt;&lt;span style=&quot;font-size: 16px;&quot;&gt;Push InfoProvider Data&lt;/span&gt;&lt;/font&gt;" style="text;html=1;align=center;verticalAlign=middle;resizable=0;points=[[0,0.5,0,0,0],[0.5,0,0,0,0],[0.5,1,0,0,0],[1,0.5,0,0,0]];autosize=1;strokeColor=none;fillColor=none;fontSize=12;fontColor=#1D2D3E;fontFamily=Helvetica;" parent="1" vertex="1">
          <mxGeometry x="-214.15999999999997" y="1253.5" width="183" height="31" as="geometry" />
        </mxCell>
        <mxCell id="h9L52XwyiUI2S6i_91ug-20" value="&lt;span style=&quot;font-size: 18px;&quot;&gt;Delta Share&lt;/span&gt;" style="rounded=1;whiteSpace=wrap;html=1;strokeColor=#0070F2;fillColor=#EBF8FF;arcSize=24;absoluteArcSize=1;imageWidth=64;imageHeight=64;strokeWidth=1.5;dashed=1;dashPattern=1 2;" parent="1" vertex="1">
          <mxGeometry x="647" y="1158.5" width="236" height="28" as="geometry" />
        </mxCell>
        <mxCell id="h9L52XwyiUI2S6i_91ug-21" value="&lt;span style=&quot;font-size: 18px;&quot;&gt;AI/ML&lt;/span&gt;&lt;span style=&quot;color: rgba(0, 0, 0, 0); font-family: monospace; font-size: 0px; text-align: start; text-wrap: nowrap;&quot;&gt;%3CmxGraphModel%3E%3Croot%3E%3CmxCell%20id%3D%220%22%2F%3E%3CmxCell%20id%3D%221%22%20parent%3D%220%22%2F%3E%3CmxCell%20id%3D%222%22%20value%3D%22%26lt%3Bspan%20style%3D%26quot%3Bfont-size%3A%2018px%3B%26quot%3B%26gt%3BDelta%20Share%26lt%3B%2Fspan%26gt%3B%22%20style%3D%22rounded%3D1%3BwhiteSpace%3Dwrap%3Bhtml%3D1%3BstrokeColor%3D%230070F2%3BfillColor%3D%23EBF8FF%3BarcSize%3D24%3BabsoluteArcSize%3D1%3BimageWidth%3D64%3BimageHeight%3D64%3BstrokeWidth%3D1.5%3Bdashed%3D1%3BdashPattern%3D1%202%3B%22%20vertex%3D%221%22%20parent%3D%221%22%3E%3CmxGeometry%20x%3D%22729%22%20y%3D%221160%22%20width%3D%22236%22%20height%3D%2228%22%20as%3D%22geometry%22%2F%3E%3C%2FmxCell%3E%3C%2Froot%3E%3C%2FmxGraphModel%3E&lt;/span&gt;" style="rounded=1;whiteSpace=wrap;html=1;strokeColor=#0070F2;fillColor=#EBF8FF;arcSize=24;absoluteArcSize=1;imageWidth=64;imageHeight=64;strokeWidth=1.5;dashed=1;dashPattern=1 2;" parent="1" vertex="1">
          <mxGeometry x="647" y="1199" width="236" height="28" as="geometry" />
        </mxCell>
        <mxCell id="h9L52XwyiUI2S6i_91ug-22" value="&lt;span style=&quot;font-size: 18px;&quot;&gt;Bi-directional Sharing&lt;/span&gt;" style="rounded=1;whiteSpace=wrap;html=1;strokeColor=#0070F2;fillColor=#EBF8FF;arcSize=24;absoluteArcSize=1;imageWidth=64;imageHeight=64;strokeWidth=1.5;dashed=1;dashPattern=1 2;" parent="1" vertex="1">
          <mxGeometry x="649" y="1243.5" width="236" height="28" as="geometry" />
        </mxCell>
        <mxCell id="h9L52XwyiUI2S6i_91ug-23" style="edgeStyle=orthogonalEdgeStyle;rounded=0;orthogonalLoop=1;jettySize=auto;html=1;entryX=-0.015;entryY=0.459;entryDx=0;entryDy=0;entryPerimeter=0;" parent="1" target="h9L52XwyiUI2S6i_91ug-10" edge="1">
          <mxGeometry relative="1" as="geometry">
            <mxPoint x="532" y="1200" as="sourcePoint" />
          </mxGeometry>
        </mxCell>
        <mxCell id="h9L52XwyiUI2S6i_91ug-24" value="" style="html=1;shadow=0;dashed=0;align=center;verticalAlign=middle;shape=mxgraph.arrows2.arrow;dy=0.6;dx=40;notch=0;fillColor=#3399FF;" parent="1" vertex="1">
          <mxGeometry x="-652" y="1186.5" width="150" height="63.5" as="geometry" />
        </mxCell>
        <mxCell id="h9L52XwyiUI2S6i_91ug-25" value="InfoProviders" style="rounded=1;whiteSpace=wrap;html=1;strokeColor=#0070F2;fillColor=#EBF8FF;arcSize=24;absoluteArcSize=1;imageWidth=64;imageHeight=64;strokeWidth=1.5;dashed=1;dashPattern=1 2;" parent="1" vertex="1">
          <mxGeometry x="-858" y="1214" width="160" height="45.5" as="geometry" />
        </mxCell>
        <mxCell id="h9L52XwyiUI2S6i_91ug-26" value="&lt;font face=&quot;arial&quot; style=&quot;font-size: 16px;&quot;&gt;&lt;span style=&quot;font-size: 16px;&quot;&gt;Any DB&lt;/span&gt;&lt;/font&gt;" style="text;html=1;align=center;verticalAlign=middle;resizable=0;points=[[0,0.5,0,0,0],[0.5,0,0,0,0],[0.5,1,0,0,0],[1,0.5,0,0,0]];autosize=1;strokeColor=none;fillColor=none;fontSize=12;fontColor=#1D2D3E;fontFamily=Helvetica;" parent="1" vertex="1">
          <mxGeometry x="-863" y="1276" width="72" height="31" as="geometry" />
        </mxCell>
        <mxCell id="h9L52XwyiUI2S6i_91ug-27" value="&lt;font face=&quot;arial&quot; style=&quot;font-size: 16px;&quot;&gt;&lt;span style=&quot;font-size: 16px;&quot;&gt;SAP HANA&lt;/span&gt;&lt;/font&gt;" style="text;html=1;align=center;verticalAlign=middle;resizable=0;points=[[0,0.5,0,0,0],[0.5,0,0,0,0],[0.5,1,0,0,0],[1,0.5,0,0,0]];autosize=1;strokeColor=none;fillColor=none;fontSize=12;fontColor=#1D2D3E;fontFamily=Helvetica;" parent="1" vertex="1">
          <mxGeometry x="-787" y="1276" width="99" height="31" as="geometry" />
        </mxCell>
      </root>
    </mxGraphModel>
  </diagram>
</mxfile>
